# xmcd
#
# Track frame offsets:
#	150
#	18991
#	27750
#	43675
#	53988
#	70548
#	83116
#	104277
#	126647
#	139101
#	150422
#	167385
#	181147
#
# Disc length: 2474 seconds
# Revision: 0
# Processed by: cddbd v1.5.2PL0 Copyright (c) Steve Scherf et al.
# Submitted via: dBpowerAMP V12.0
#
DISCID=9e09a80d
DTITLE=Tumbling Bones - Loving a Fool
DYEAR=2014
DGENRE=Americana
TTITLE0=Broken Things
TTITLE1=Bound To Ride
TTITLE2=Loving A Fool
TTITLE3=I Don't Believe You've Met My Baby
TTITLE4=How They're Rolling
TTITLE5=Shady Green Pastures
TTITLE6=Red, Red Rose
TTITLE7=This Time Last Year
TTITLE8=A Voice From On High
TTITLE9=Just Because
TTITLE10=Money Is For Spending
TTITLE11=Bright Morning Stars
TTITLE12=Morning
EXTD=
EXTT0=
EXTT1=
EXTT2=
EXTT3=
EXTT4=
EXTT5=
EXTT6=
EXTT7=
EXTT8=
EXTT9=
EXTT10=
EXTT11=
EXTT12=
PLAYORDER=
